<svg width="1784" height="523" viewBox="0 0 1784 523" fill="none" xmlns="http://www.w3.org/2000/svg">
<path d="M102.667 136.8C82.7998 141.067 72.2665 145.467 55.1998 156.8C29.9998 173.333 11.0665 201.2 3.06651 233.067C-0.400154 246.8 -0.000153641 277.2 3.73318 291.733C15.1998 335.733 49.7332 371.067 92.6665 382.667C107.333 386.667 122.4 388 152.267 388C178.267 388 180.133 387.867 182.667 385.333C185.2 382.8 185.333 380.933 185.333 358.267C185.333 344.933 184.667 333.067 184 332C182.933 330.4 176.8 329.867 147.733 329.2C116.133 328.533 111.867 328.133 104.667 325.467C50.7998 305.867 42.1332 234.667 89.8665 203.733C104.267 194.4 110.4 193.333 147.467 193.333C178.267 193.333 180.133 193.2 182.667 190.667C185.2 188.133 185.333 186.267 185.333 163.467C185.333 142.933 184.933 138.533 183.2 136.8C181.467 134.933 176.267 134.667 146.267 134.8C121.733 134.8 108.8 135.467 102.667 136.8Z" fill="black"/>
<path d="M225.6 136.267C224.4 137.467 224 149.6 224 182.667C224 224.133 223.866 227.733 221.6 229.733C219.466 231.6 212.933 232 167.733 232.267L116.266 232.667L110.4 236.667C103.2 241.733 97.333 252.533 97.333 260.933C97.333 271.867 103.466 281.467 114 287.067C119.2 289.867 121.066 290 170 290.4C203.2 290.667 221.2 291.333 222.266 292.267C223.6 293.333 224 303.6 224 338.8C224 383.867 224 383.867 226.933 385.867C229.333 387.6 234.4 388 253.6 388C275.6 388 277.6 387.733 280 385.333C282.533 382.8 282.666 380.933 282.666 338.133C282.666 303.6 283.066 293.333 284.4 292.267C285.466 291.333 303.466 290.667 336.666 290.4L387.333 290L393.733 286.267C409.6 276.933 413.466 256.4 401.6 242.667C392.666 232.133 392.533 232 336.933 232C305.733 232 286.933 231.467 285.2 230.667C282.8 229.333 282.666 227.333 282.666 184.133C282.666 142.133 282.533 138.933 280.266 136.933C278.133 134.933 274.133 134.667 252.533 134.667C234.533 134.667 226.666 135.2 225.6 136.267Z" fill="black"/>
<path d="M323.066 136.133C321.733 137.467 321.333 144.8 321.333 163.467C321.333 188.533 321.466 189.2 324.266 191.2C326.8 192.933 332.4 193.333 358.666 193.333C380.666 193.333 392 193.867 396.666 195.2C438.666 206.533 459.466 252.267 440.4 291.6C435.333 302 421.6 315.867 410.8 321.2C397.466 328 388.533 329.333 354.533 329.333C333.066 329.333 324.133 329.733 322.933 330.933C321.733 332.133 321.333 340 321.333 358.133C321.333 383.2 321.466 383.867 324.266 385.867C326.8 387.6 331.866 388 353.733 388C396 388 414.4 384.8 436.666 373.733C482.666 350.667 511.066 298.8 505.333 248.4C500.266 202.8 474.266 166.4 432.933 146.533C412.133 136.667 405.6 135.6 362.666 135.067C333.2 134.533 324.266 134.8 323.066 136.133Z" fill="black"/>
<path d="M659.6 143.601C657.733 148.667 647.733 175.201 637.466 202.667C627.333 230.134 609.466 277.867 598 308.667C586.533 339.467 575.333 369.334 573.2 374.934L569.466 385.334H594.4H619.333L628.133 359.601L636.933 334.001L684.133 333.601C710 333.467 731.733 333.867 732.266 334.401C732.933 335.067 737.2 346.667 741.866 360.134L750.4 384.667L775.2 385.067C788.8 385.201 800 385.067 800 384.801C800 384.134 775.2 317.334 726.133 186.001L707.2 135.334L685.066 134.934L663.066 134.667L659.6 143.601ZM701.2 244.667C709.333 268.134 716 287.734 716 288.401C716 288.934 701.866 289.334 684.533 289.334C655.066 289.334 653.066 289.201 654 286.934C654.4 285.734 660 270.001 666.133 252.001C683.6 201.734 684.266 199.734 685.333 200.934C685.866 201.467 693.066 221.201 701.2 244.667Z" fill="black"/>
<path d="M1685.33 232.267C1685.33 338.4 1685.47 340.534 1692.8 354.8C1697.87 364.8 1702 369.867 1709.6 375.467C1722.27 384.8 1741.07 389.334 1756.27 386.667C1770.67 384.134 1769.33 386.4 1769.33 364.134V344.534L1760.67 345.067C1744.8 346.134 1735.2 339.867 1732.13 326.667C1731.2 322.8 1730.67 286.8 1730.67 227.6V134.667H1708H1685.33V232.267Z" fill="black"/>
<path d="M1190.67 175.866C1190.67 191.466 1190.4 193.333 1187.6 197.466C1183.6 203.466 1178.67 205.599 1167.07 206.399L1157.33 207.066V225.466V243.999H1171.2H1185.2L1185.6 290.933C1186 335.466 1186.27 338.533 1189.07 346.933C1194.93 364.399 1208.27 377.866 1226 384.133C1235.6 387.599 1255.07 388.133 1263.33 385.199L1268.67 383.333L1269.07 363.999L1269.47 344.666L1259.6 345.066C1251.73 345.466 1248.67 345.066 1244.53 342.933C1231.47 336.266 1230.8 333.466 1230.67 284.266V243.999H1250.67H1270.67V223.333V202.799L1251.07 202.399L1231.33 201.999L1230.93 180.266L1230.67 158.666H1210.67H1190.67V175.866Z" fill="black"/>
<path d="M869.2 202C850.667 205.733 834 215.333 820 230.267C785.467 267.333 786.533 324.133 822.533 359.867C838.533 375.867 854.533 383.867 876.4 386.667C912 391.467 948.267 370.8 964.667 336.667C967.867 330.133 970.8 323.067 971.2 320.933L972 317.333H949.6H927.067L922.933 323.867C914.533 336.8 902.133 343.2 886 343.2C867.867 343.2 854.267 334.933 846.667 319.467C834.267 294.4 841.867 262.267 863.067 250.133C883.333 238.667 911.067 245.067 922.667 263.867L926 269.2L948.933 269.333H971.867L970.133 263.6C965.2 248 957.733 236.4 944.267 223.733C923.733 204.4 896.533 196.533 869.2 202Z" fill="black"/>
<path d="M1051.33 202.134C1032.13 206.401 1011.2 219.334 999.333 234.401C991.733 243.867 983.333 260.667 980.533 272.001C977.333 284.134 977.733 304.534 981.2 317.734C989.733 350.001 1015.87 376.267 1048 384.667C1059.33 387.734 1079.33 387.734 1090.53 384.801C1108.13 380.267 1127.07 367.467 1138.13 352.934C1144.93 344.001 1152.8 328.667 1154.13 321.601L1155.07 317.334H1132.53H1110L1107.33 322.134C1103.47 329.201 1092.93 338.134 1084.93 340.801C1062.53 348.534 1039.6 338.934 1029.07 317.601C1024.93 309.201 1024.67 308.001 1024.67 294.001C1024.67 280.401 1024.93 278.667 1028.8 270.534C1036.27 254.934 1049.33 245.734 1065.87 244.401C1081.6 243.067 1095.33 249.601 1105.33 263.067L1110 269.334H1132.27C1146 269.334 1154.67 268.801 1154.67 268.001C1154.67 264.267 1147.33 248.001 1142 240.134C1122.13 210.134 1085.07 194.667 1051.33 202.134Z" fill="black"/>
<path d="M1546.67 202.134C1522.4 207.334 1498.93 226.401 1487.87 250.001C1476.4 274.401 1475.47 308.267 1485.6 332.401C1497.87 361.867 1523.07 382.001 1553.33 386.667C1571.07 389.334 1591.73 384.534 1606.67 374.134C1611.47 370.801 1615.73 368.534 1616.13 369.067C1616.53 369.601 1618.4 373.467 1620 377.601L1623.2 385.334H1640.27H1657.33V294.001V202.667H1640.27H1623.2L1619.47 211.334L1615.73 220.001L1609.33 215.334C1591.47 202.267 1568.53 197.334 1546.67 202.134ZM1582.27 245.867C1591.2 248.267 1597.47 252.134 1603.2 258.934C1616.8 274.801 1619.33 299.334 1609.33 319.601C1601.87 334.667 1588.27 343.067 1570.67 343.201C1551.73 343.467 1537.47 334.667 1529.07 317.601C1524.93 309.201 1524.67 308.001 1524.67 294.001C1524.67 280.267 1524.93 278.801 1528.8 270.667C1539.07 249.334 1559.47 239.867 1582.27 245.867Z" fill="black"/>
<path d="M1293.33 263.334C1293.33 301.734 1293.87 326.4 1294.8 330.934C1297.07 342.267 1305.6 358.534 1313.33 366.4C1338.27 391.734 1381.07 394.4 1411.73 372.4L1418 367.867L1422 376.667L1426 385.334H1443.07H1460V294V202.667H1437.47H1414.8L1414.4 258.267C1414 303.2 1413.47 314.934 1412 318.934C1405.47 335.067 1393.33 343.334 1376 343.2C1363.73 343.2 1355.6 339.6 1348.13 331.2C1338.93 320.667 1338.67 318.534 1338.67 257.2V202.667H1316H1293.33V263.334Z" fill="black"/>
</svg>
