<svg width="32" height="33" viewBox="0 0 32 33" fill="none" xmlns="http://www.w3.org/2000/svg">
<g clip-path="url(#clip0_1_5234)">
<path d="M16.0005 32.0293C24.837 32.0293 32.0005 24.8659 32.0005 16.0293C32.0005 7.19274 24.837 0.0292969 16.0005 0.0292969C7.16393 0.0292969 0.000488281 7.19274 0.000488281 16.0293C0.000488281 24.8659 7.16393 32.0293 16.0005 32.0293Z" fill="#EF0027"/>
<path d="M21.4325 9.6853L7.00049 7.0293L14.5955 26.1413L25.1785 13.2473L21.4325 9.6853ZM21.2005 10.8553L23.4085 12.9543L17.3705 14.0473L21.2005 10.8553ZM16.0585 13.8283L9.69449 8.5503L20.0965 10.4643L16.0585 13.8283ZM15.6055 14.7623L14.5675 23.3423L8.97249 9.2593L15.6055 14.7613V14.7623ZM16.5655 15.2173L23.2525 14.0073L15.5825 23.3503L16.5655 15.2173Z" fill="white"/>
</g>
<defs>
<clipPath id="clip0_1_5234">
<rect width="32" height="32" fill="white" transform="translate(0.000488281 0.0292969)"/>
</clipPath>
</defs>
</svg>
